<?xml version="1.0" encoding="utf-8"?>
<!-- Generator: Adobe Illustrator 18.0.0, SVG Export Plug-In . SVG Version: 6.00 Build 0)  -->
<!DOCTYPE svg PUBLIC "-//W3C//DTD SVG 1.1//EN" "http://www.w3.org/Graphics/SVG/1.1/DTD/svg11.dtd">
<svg version="1.1" id="Layer_1" xmlns="http://www.w3.org/2000/svg" xmlns:xlink="http://www.w3.org/1999/xlink" x="0px" y="0px"
	 width="1400px" height="980px" viewBox="0 0 1400 980" enable-background="new 0 0 1400 980" xml:space="preserve">
<rect fill="#FFFFFF" width="1400" height="980"/>
<g>
	<g>
		<path fill="#101010" d="M1212.6,439.4H1063c-14.5,0-26.2-11.7-26.2-26.2V308.4l202,0v104.8C1238.8,427.7,1227,439.4,1212.6,439.4z
			"/>
	</g>
	<g>
		<g>
			<polygon fill="#101010" points="1036.8,260.2 1065.9,255.8 1045.7,288.9 1041.3,289.6 			"/>
		</g>
		<g>
			<polygon fill="#101010" points="1090.7,252 1112.1,248.7 1092,281.8 1070.5,285.1 			"/>
		</g>
		<g>
			<polygon fill="#101010" points="1137,245 1158.4,241.7 1138.2,274.8 1138.2,274.8 1116.8,278.1 1136.9,245 			"/>
		</g>
		<g>
			<polygon fill="#101010" points="1183.2,237.9 1204.7,234.6 1184.5,267.8 1163,271 			"/>
		</g>
		<g>
			<polygon fill="#101010" points="1241,259.2 1209.3,264 1229.5,230.9 1229.5,230.9 1236.5,229.8 			"/>
		</g>
	</g>
	<g>
		<polygon fill="#101010" points="1036.8,300 1036.8,260.2 1072.2,300 		"/>
	</g>
</g>
<g>
	<g>
		<path fill="#101010" d="M454.1,256.8v187.1h218V256.8H454.1z M602.1,265.9l18.9,0v18.9l-18.9-0.1V265.9z M569.8,265.8l18.9,0.1
			v18.9l-18.9,0V265.8z M537.4,265.7l18.8,0.1v18.9l-18.8,0V265.7z M505.1,265.6l18.8,0v18.9l-18.8,0V265.6z M472.7,265.6l18.9,0
			v18.9l-18.9-0.1V265.6z M491.6,433l-18.9,0V414l18.9,0.1V433z M523.9,433.1l-18.8,0v-18.9l18.8,0.1V433.1z M556.3,433.1l-18.8,0
			v-18.9l18.8,0.1V433.1z M588.7,433.2l-18.9-0.1v-18.9l18.9,0V433.2z M621,433.3l-18.9-0.1v-18.9l18.9,0V433.3z M653.3,433.3
			l-18.8-0.1v-18.9l18.8,0V433.3z M653.3,395.2c0,4.6-3.8,8.4-8.4,8.4H481.1c-4.6,0-8.4-3.8-8.4-8.4v-91.7c0-4.6,3.8-8.4,8.4-8.4
			H645c4.6,0,8.4,3.7,8.4,8.4V395.2z M653.3,284.8l-18.8-0.1v-18.9l18.8,0V284.8z"/>
	</g>
</g>
<g>
	<g>
		<path fill="#101010" d="M796.7,359.1c-1.2-4.6-1.8-9.5-1.8-14.4c0-4.6,0.5-9.1,1.5-13.4c7.5,0.3,13.4,6.4,13.4,13.9
			C809.8,352.6,804,358.7,796.7,359.1z"/>
		<path fill="#101010" d="M823,294.2c-8,5-14.7,11.8-19.6,19.8c2.6,2.5,6,3.8,9.6,3.8c3.7,0,7.2-1.4,9.8-4.1
			C828.2,308.3,828.3,299.6,823,294.2z M823,294.2c-8,5-14.7,11.8-19.6,19.8c2.6,2.5,6,3.8,9.6,3.8c3.7,0,7.2-1.4,9.8-4.1
			C828.2,308.3,828.3,299.6,823,294.2z M823,294.2c-8,5-14.7,11.8-19.6,19.8c2.6,2.5,6,3.8,9.6,3.8c3.7,0,7.2-1.4,9.8-4.1
			C828.2,308.3,828.3,299.6,823,294.2z M854.3,285.2c-4.8,0-9.5,0.6-13.9,1.6c0.1,7.6,6.3,13.8,13.9,13.8c7.7,0,13.9-6.2,14-13.8
			C863.8,285.8,859.2,285.2,854.3,285.2z M885.7,294.2c-5.3,5.4-5.2,14.2,0.1,19.6c2.6,2.6,6.1,4.1,9.9,4.1c3.6,0,7-1.3,9.6-3.8
			C900.4,305.9,893.7,299.1,885.7,294.2z M854.3,285.2c-4.8,0-9.5,0.6-13.9,1.6c0.1,7.6,6.3,13.8,13.9,13.8c7.7,0,13.9-6.2,14-13.8
			C863.8,285.8,859.2,285.2,854.3,285.2z M823,294.2c-8,5-14.7,11.8-19.6,19.8c2.6,2.5,6,3.8,9.6,3.8c3.7,0,7.2-1.4,9.8-4.1
			C828.2,308.3,828.3,299.6,823,294.2z M885.7,294.2c-5.3,5.4-5.2,14.2,0.1,19.6c2.6,2.6,6.1,4.1,9.9,4.1c3.6,0,7-1.3,9.6-3.8
			C900.4,305.9,893.7,299.1,885.7,294.2z M823,294.2c-8,5-14.7,11.8-19.6,19.8c2.6,2.5,6,3.8,9.6,3.8c3.7,0,7.2-1.4,9.8-4.1
			C828.2,308.3,828.3,299.6,823,294.2z M854.3,285.2c-4.8,0-9.5,0.6-13.9,1.6c0.1,7.6,6.3,13.8,13.9,13.8c7.7,0,13.9-6.2,14-13.8
			C863.8,285.8,859.2,285.2,854.3,285.2z M895.7,372.6c-3.7,0-7.2,1.5-9.9,4.1c-2.6,2.6-4.1,6.1-4.1,9.9c0,3.3,1.2,6.5,3.3,9
			c8-4.8,14.8-11.6,19.8-19.5C902.3,373.8,899.1,372.6,895.7,372.6z M885.7,294.2c-5.3,5.4-5.2,14.2,0.1,19.6
			c2.6,2.6,6.1,4.1,9.9,4.1c3.6,0,7-1.3,9.6-3.8C900.4,305.9,893.7,299.1,885.7,294.2z M912.3,331.3c-7.5,0.3-13.4,6.4-13.4,13.9
			c0,7.4,5.8,13.5,13.2,13.9c1.2-4.6,1.8-9.5,1.8-14.4C913.8,340.1,913.3,335.6,912.3,331.3z M912.3,331.3
			c-7.5,0.3-13.4,6.4-13.4,13.9c0,7.4,5.8,13.5,13.2,13.9c1.2-4.6,1.8-9.5,1.8-14.4C913.8,340.1,913.3,335.6,912.3,331.3z
			 M895.7,372.6c-3.7,0-7.2,1.5-9.9,4.1c-2.6,2.6-4.1,6.1-4.1,9.9c0,3.3,1.2,6.5,3.3,9c8-4.8,14.8-11.6,19.8-19.5
			C902.3,373.8,899.1,372.6,895.7,372.6z M854.3,285.2c-4.8,0-9.5,0.6-13.9,1.6c0.1,7.6,6.3,13.8,13.9,13.8c7.7,0,13.9-6.2,14-13.8
			C863.8,285.8,859.2,285.2,854.3,285.2z M823,294.2c-8,5-14.7,11.8-19.6,19.8c2.6,2.5,6,3.8,9.6,3.8c3.7,0,7.2-1.4,9.8-4.1
			C828.2,308.3,828.3,299.6,823,294.2z M885.7,294.2c-5.3,5.4-5.2,14.2,0.1,19.6c2.6,2.6,6.1,4.1,9.9,4.1c3.6,0,7-1.3,9.6-3.8
			C900.4,305.9,893.7,299.1,885.7,294.2z M823,294.2c-8,5-14.7,11.8-19.6,19.8c2.6,2.5,6,3.8,9.6,3.8c3.7,0,7.2-1.4,9.8-4.1
			C828.2,308.3,828.3,299.6,823,294.2z M854.3,389.8c-7.3,0-13.3,5.6-13.9,12.8c4.4,1,9.1,1.6,13.9,1.6c4.8,0,9.4-0.6,13.9-1.6
			C867.6,395.4,861.6,389.8,854.3,389.8z M854.3,285.2c-4.8,0-9.5,0.6-13.9,1.6c0.1,7.6,6.3,13.8,13.9,13.8c7.7,0,13.9-6.2,14-13.8
			C863.8,285.8,859.2,285.2,854.3,285.2z M895.7,372.6c-3.7,0-7.2,1.5-9.9,4.1c-2.6,2.6-4.1,6.1-4.1,9.9c0,3.3,1.2,6.5,3.3,9
			c8-4.8,14.8-11.6,19.8-19.5C902.3,373.8,899.1,372.6,895.7,372.6z M885.7,294.2c-5.3,5.4-5.2,14.2,0.1,19.6
			c2.6,2.6,6.1,4.1,9.9,4.1c3.6,0,7-1.3,9.6-3.8C900.4,305.9,893.7,299.1,885.7,294.2z M912.3,331.3c-7.5,0.3-13.4,6.4-13.4,13.9
			c0,7.4,5.8,13.5,13.2,13.9c1.2-4.6,1.8-9.5,1.8-14.4C913.8,340.1,913.3,335.6,912.3,331.3z M912.3,331.3
			c-7.5,0.3-13.4,6.4-13.4,13.9c0,7.4,5.8,13.5,13.2,13.9c1.2-4.6,1.8-9.5,1.8-14.4C913.8,340.1,913.3,335.6,912.3,331.3z
			 M895.7,372.6c-3.7,0-7.2,1.5-9.9,4.1c-2.6,2.6-4.1,6.1-4.1,9.9c0,3.3,1.2,6.5,3.3,9c8-4.8,14.8-11.6,19.8-19.5
			C902.3,373.8,899.1,372.6,895.7,372.6z M854.3,285.2c-4.8,0-9.5,0.6-13.9,1.6c0.1,7.6,6.3,13.8,13.9,13.8c7.7,0,13.9-6.2,14-13.8
			C863.8,285.8,859.2,285.2,854.3,285.2z M854.3,389.8c-7.3,0-13.3,5.6-13.9,12.8c4.4,1,9.1,1.6,13.9,1.6c4.8,0,9.4-0.6,13.9-1.6
			C867.6,395.4,861.6,389.8,854.3,389.8z M823,294.2c-8,5-14.7,11.8-19.6,19.8c2.6,2.5,6,3.8,9.6,3.8c3.7,0,7.2-1.4,9.8-4.1
			C828.2,308.3,828.3,299.6,823,294.2z M885.7,294.2c-5.3,5.4-5.2,14.2,0.1,19.6c2.6,2.6,6.1,4.1,9.9,4.1c3.6,0,7-1.3,9.6-3.8
			C900.4,305.9,893.7,299.1,885.7,294.2z M823,294.2c-8,5-14.7,11.8-19.6,19.8c2.6,2.5,6,3.8,9.6,3.8c3.7,0,7.2-1.4,9.8-4.1
			C828.2,308.3,828.3,299.6,823,294.2z M822.8,376.7c-2.6-2.6-6.1-4.1-9.8-4.1c-3.4,0-6.6,1.2-9.2,3.4c5,8,11.7,14.7,19.8,19.5
			c2.1-2.5,3.3-5.7,3.3-9C826.9,382.8,825.5,379.3,822.8,376.7z M854.3,389.8c-7.3,0-13.3,5.6-13.9,12.8c4.4,1,9.1,1.6,13.9,1.6
			c4.8,0,9.4-0.6,13.9-1.6C867.6,395.4,861.6,389.8,854.3,389.8z M854.3,285.2c-4.8,0-9.5,0.6-13.9,1.6c0.1,7.6,6.3,13.8,13.9,13.8
			c7.7,0,13.9-6.2,14-13.8C863.8,285.8,859.2,285.2,854.3,285.2z M895.7,372.6c-3.7,0-7.2,1.5-9.9,4.1c-2.6,2.6-4.1,6.1-4.1,9.9
			c0,3.3,1.2,6.5,3.3,9c8-4.8,14.8-11.6,19.8-19.5C902.3,373.8,899.1,372.6,895.7,372.6z M885.7,294.2c-5.3,5.4-5.2,14.2,0.1,19.6
			c2.6,2.6,6.1,4.1,9.9,4.1c3.6,0,7-1.3,9.6-3.8C900.4,305.9,893.7,299.1,885.7,294.2z M912.3,331.3c-7.5,0.3-13.4,6.4-13.4,13.9
			c0,7.4,5.8,13.5,13.2,13.9c1.2-4.6,1.8-9.5,1.8-14.4C913.8,340.1,913.3,335.6,912.3,331.3z M912.3,331.3
			c-7.5,0.3-13.4,6.4-13.4,13.9c0,7.4,5.8,13.5,13.2,13.9c1.2-4.6,1.8-9.5,1.8-14.4C913.8,340.1,913.3,335.6,912.3,331.3z
			 M895.7,372.6c-3.7,0-7.2,1.5-9.9,4.1c-2.6,2.6-4.1,6.1-4.1,9.9c0,3.3,1.2,6.5,3.3,9c8-4.8,14.8-11.6,19.8-19.5
			C902.3,373.8,899.1,372.6,895.7,372.6z M854.3,285.2c-4.8,0-9.5,0.6-13.9,1.6c0.1,7.6,6.3,13.8,13.9,13.8c7.7,0,13.9-6.2,14-13.8
			C863.8,285.8,859.2,285.2,854.3,285.2z M854.3,389.8c-7.3,0-13.3,5.6-13.9,12.8c4.4,1,9.1,1.6,13.9,1.6c4.8,0,9.4-0.6,13.9-1.6
			C867.6,395.4,861.6,389.8,854.3,389.8z M822.8,376.7c-2.6-2.6-6.1-4.1-9.8-4.1c-3.4,0-6.6,1.2-9.2,3.4c5,8,11.7,14.7,19.8,19.5
			c2.1-2.5,3.3-5.7,3.3-9C826.9,382.8,825.5,379.3,822.8,376.7z M823,294.2c-8,5-14.7,11.8-19.6,19.8c2.6,2.5,6,3.8,9.6,3.8
			c3.7,0,7.2-1.4,9.8-4.1C828.2,308.3,828.3,299.6,823,294.2z M885.7,294.2c-5.3,5.4-5.2,14.2,0.1,19.6c2.6,2.6,6.1,4.1,9.9,4.1
			c3.6,0,7-1.3,9.6-3.8C900.4,305.9,893.7,299.1,885.7,294.2z M823,294.2c-8,5-14.7,11.8-19.6,19.8c2.6,2.5,6,3.8,9.6,3.8
			c3.7,0,7.2-1.4,9.8-4.1C828.2,308.3,828.3,299.6,823,294.2z M822.8,376.7c-2.6-2.6-6.1-4.1-9.8-4.1c-3.4,0-6.6,1.2-9.2,3.4
			c5,8,11.7,14.7,19.8,19.5c2.1-2.5,3.3-5.7,3.3-9C826.9,382.8,825.5,379.3,822.8,376.7z M854.3,389.8c-7.3,0-13.3,5.6-13.9,12.8
			c4.4,1,9.1,1.6,13.9,1.6c4.8,0,9.4-0.6,13.9-1.6C867.6,395.4,861.6,389.8,854.3,389.8z M854.3,285.2c-4.8,0-9.5,0.6-13.9,1.6
			c0.1,7.6,6.3,13.8,13.9,13.8c7.7,0,13.9-6.2,14-13.8C863.8,285.8,859.2,285.2,854.3,285.2z M895.7,372.6c-3.7,0-7.2,1.5-9.9,4.1
			c-2.6,2.6-4.1,6.1-4.1,9.9c0,3.3,1.2,6.5,3.3,9c8-4.8,14.8-11.6,19.8-19.5C902.3,373.8,899.1,372.6,895.7,372.6z M885.7,294.2
			c-5.3,5.4-5.2,14.2,0.1,19.6c2.6,2.6,6.1,4.1,9.9,4.1c3.6,0,7-1.3,9.6-3.8C900.4,305.9,893.7,299.1,885.7,294.2z M912.3,331.3
			c-7.5,0.3-13.4,6.4-13.4,13.9c0,7.4,5.8,13.5,13.2,13.9c1.2-4.6,1.8-9.5,1.8-14.4C913.8,340.1,913.3,335.6,912.3,331.3z
			 M912.3,331.3c-7.5,0.3-13.4,6.4-13.4,13.9c0,7.4,5.8,13.5,13.2,13.9c1.2-4.6,1.8-9.5,1.8-14.4
			C913.8,340.1,913.3,335.6,912.3,331.3z M895.7,372.6c-3.7,0-7.2,1.5-9.9,4.1c-2.6,2.6-4.1,6.1-4.1,9.9c0,3.3,1.2,6.5,3.3,9
			c8-4.8,14.8-11.6,19.8-19.5C902.3,373.8,899.1,372.6,895.7,372.6z M854.3,285.2c-4.8,0-9.5,0.6-13.9,1.6
			c0.1,7.6,6.3,13.8,13.9,13.8c7.7,0,13.9-6.2,14-13.8C863.8,285.8,859.2,285.2,854.3,285.2z M854.3,389.8
			c-7.3,0-13.3,5.6-13.9,12.8c4.4,1,9.1,1.6,13.9,1.6c4.8,0,9.4-0.6,13.9-1.6C867.6,395.4,861.6,389.8,854.3,389.8z M822.8,376.7
			c-2.6-2.6-6.1-4.1-9.8-4.1c-3.4,0-6.6,1.2-9.2,3.4c5,8,11.7,14.7,19.8,19.5c2.1-2.5,3.3-5.7,3.3-9
			C826.9,382.8,825.5,379.3,822.8,376.7z M823,294.2c-8,5-14.7,11.8-19.6,19.8c2.6,2.5,6,3.8,9.6,3.8c3.7,0,7.2-1.4,9.8-4.1
			C828.2,308.3,828.3,299.6,823,294.2z M885.7,294.2c-5.3,5.4-5.2,14.2,0.1,19.6c2.6,2.6,6.1,4.1,9.9,4.1c3.6,0,7-1.3,9.6-3.8
			C900.4,305.9,893.7,299.1,885.7,294.2z M823,294.2c-8,5-14.7,11.8-19.6,19.8c2.6,2.5,6,3.8,9.6,3.8c3.7,0,7.2-1.4,9.8-4.1
			C828.2,308.3,828.3,299.6,823,294.2z M822.8,376.7c-2.6-2.6-6.1-4.1-9.8-4.1c-3.4,0-6.6,1.2-9.2,3.4c5,8,11.7,14.7,19.8,19.5
			c2.1-2.5,3.3-5.7,3.3-9C826.9,382.8,825.5,379.3,822.8,376.7z M854.3,389.8c-7.3,0-13.3,5.6-13.9,12.8c4.4,1,9.1,1.6,13.9,1.6
			c4.8,0,9.4-0.6,13.9-1.6C867.6,395.4,861.6,389.8,854.3,389.8z M854.3,285.2c-4.8,0-9.5,0.6-13.9,1.6c0.1,7.6,6.3,13.8,13.9,13.8
			c7.7,0,13.9-6.2,14-13.8C863.8,285.8,859.2,285.2,854.3,285.2z M895.7,372.6c-3.7,0-7.2,1.5-9.9,4.1c-2.6,2.6-4.1,6.1-4.1,9.9
			c0,3.3,1.2,6.5,3.3,9c8-4.8,14.8-11.6,19.8-19.5C902.3,373.8,899.1,372.6,895.7,372.6z M885.7,294.2c-5.3,5.4-5.2,14.2,0.1,19.6
			c2.6,2.6,6.1,4.1,9.9,4.1c3.6,0,7-1.3,9.6-3.8C900.4,305.9,893.7,299.1,885.7,294.2z M912.3,331.3c-7.5,0.3-13.4,6.4-13.4,13.9
			c0,7.4,5.8,13.5,13.2,13.9c1.2-4.6,1.8-9.5,1.8-14.4C913.8,340.1,913.3,335.6,912.3,331.3z M912.3,331.3
			c-7.5,0.3-13.4,6.4-13.4,13.9c0,7.4,5.8,13.5,13.2,13.9c1.2-4.6,1.8-9.5,1.8-14.4C913.8,340.1,913.3,335.6,912.3,331.3z
			 M895.7,372.6c-3.7,0-7.2,1.5-9.9,4.1c-2.6,2.6-4.1,6.1-4.1,9.9c0,3.3,1.2,6.5,3.3,9c8-4.8,14.8-11.6,19.8-19.5
			C902.3,373.8,899.1,372.6,895.7,372.6z M854.3,285.2c-4.8,0-9.5,0.6-13.9,1.6c0.1,7.6,6.3,13.8,13.9,13.8c7.7,0,13.9-6.2,14-13.8
			C863.8,285.8,859.2,285.2,854.3,285.2z M854.3,389.8c-7.3,0-13.3,5.6-13.9,12.8c4.4,1,9.1,1.6,13.9,1.6c4.8,0,9.4-0.6,13.9-1.6
			C867.6,395.4,861.6,389.8,854.3,389.8z M822.8,376.7c-2.6-2.6-6.1-4.1-9.8-4.1c-3.4,0-6.6,1.2-9.2,3.4c5,8,11.7,14.7,19.8,19.5
			c2.1-2.5,3.3-5.7,3.3-9C826.9,382.8,825.5,379.3,822.8,376.7z M823,294.2c-8,5-14.7,11.8-19.6,19.8c2.6,2.5,6,3.8,9.6,3.8
			c3.7,0,7.2-1.4,9.8-4.1C828.2,308.3,828.3,299.6,823,294.2z M885.7,294.2c-5.3,5.4-5.2,14.2,0.1,19.6c2.6,2.6,6.1,4.1,9.9,4.1
			c3.6,0,7-1.3,9.6-3.8C900.4,305.9,893.7,299.1,885.7,294.2z M823,294.2c-8,5-14.7,11.8-19.6,19.8c2.6,2.5,6,3.8,9.6,3.8
			c3.7,0,7.2-1.4,9.8-4.1C828.2,308.3,828.3,299.6,823,294.2z M822.8,376.7c-2.6-2.6-6.1-4.1-9.8-4.1c-3.4,0-6.6,1.2-9.2,3.4
			c5,8,11.7,14.7,19.8,19.5c2.1-2.5,3.3-5.7,3.3-9C826.9,382.8,825.5,379.3,822.8,376.7z M854.3,389.8c-7.3,0-13.3,5.6-13.9,12.8
			c4.4,1,9.1,1.6,13.9,1.6c4.8,0,9.4-0.6,13.9-1.6C867.6,395.4,861.6,389.8,854.3,389.8z M854.3,285.2c-4.8,0-9.5,0.6-13.9,1.6
			c0.1,7.6,6.3,13.8,13.9,13.8c7.7,0,13.9-6.2,14-13.8C863.8,285.8,859.2,285.2,854.3,285.2z M895.7,372.6c-3.7,0-7.2,1.5-9.9,4.1
			c-2.6,2.6-4.1,6.1-4.1,9.9c0,3.3,1.2,6.5,3.3,9c8-4.8,14.8-11.6,19.8-19.5C902.3,373.8,899.1,372.6,895.7,372.6z M885.7,294.2
			c-5.3,5.4-5.2,14.2,0.1,19.6c2.6,2.6,6.1,4.1,9.9,4.1c3.6,0,7-1.3,9.6-3.8C900.4,305.9,893.7,299.1,885.7,294.2z M912.3,331.3
			c-7.5,0.3-13.4,6.4-13.4,13.9c0,7.4,5.8,13.5,13.2,13.9c1.2-4.6,1.8-9.5,1.8-14.4C913.8,340.1,913.3,335.6,912.3,331.3z
			 M912.3,331.3c-7.5,0.3-13.4,6.4-13.4,13.9c0,7.4,5.8,13.5,13.2,13.9c1.2-4.6,1.8-9.5,1.8-14.4
			C913.8,340.1,913.3,335.6,912.3,331.3z M895.7,372.6c-3.7,0-7.2,1.5-9.9,4.1c-2.6,2.6-4.1,6.1-4.1,9.9c0,3.3,1.2,6.5,3.3,9
			c8-4.8,14.8-11.6,19.8-19.5C902.3,373.8,899.1,372.6,895.7,372.6z M854.3,285.2c-4.8,0-9.5,0.6-13.9,1.6
			c0.1,7.6,6.3,13.8,13.9,13.8c7.7,0,13.9-6.2,14-13.8C863.8,285.8,859.2,285.2,854.3,285.2z M854.3,389.8
			c-7.3,0-13.3,5.6-13.9,12.8c4.4,1,9.1,1.6,13.9,1.6c4.8,0,9.4-0.6,13.9-1.6C867.6,395.4,861.6,389.8,854.3,389.8z M822.8,376.7
			c-2.6-2.6-6.1-4.1-9.8-4.1c-3.4,0-6.6,1.2-9.2,3.4c5,8,11.7,14.7,19.8,19.5c2.1-2.5,3.3-5.7,3.3-9
			C826.9,382.8,825.5,379.3,822.8,376.7z M823,294.2c-8,5-14.7,11.8-19.6,19.8c2.6,2.5,6,3.8,9.6,3.8c3.7,0,7.2-1.4,9.8-4.1
			C828.2,308.3,828.3,299.6,823,294.2z M885.7,294.2c-5.3,5.4-5.2,14.2,0.1,19.6c2.6,2.6,6.1,4.1,9.9,4.1c3.6,0,7-1.3,9.6-3.8
			C900.4,305.9,893.7,299.1,885.7,294.2z M854.3,256.1c-48.9,0-88.5,39.6-88.5,88.6c0,37.6,23.4,69.6,56.4,82.5
			c10,3.9,20.8,6,32.2,6c0.4,0,0.7,0,1.1,0c48.4-0.6,87.4-40,87.4-88.5C942.9,295.8,903.2,256.1,854.3,256.1z M881.8,290
			c7.7-7.7,20.1-7.7,27.8,0c7.7,7.7,7.7,20.1,0,27.8c-7.7,7.7-20.1,7.7-27.8,0C874.1,310.1,874.1,297.6,881.8,290z M799.1,290
			c7.7-7.7,20.1-7.7,27.8,0c7.7,7.7,7.7,20.1,0,27.8c-7.7,7.7-20.1,7.7-27.8,0C791.4,310.1,791.4,297.6,799.1,290z M776.2,345.2
			c0-10.8,8.8-19.6,19.7-19.6c10.8,0,19.6,8.8,19.6,19.6c0,10.9-8.8,19.7-19.6,19.7C785,364.9,776.2,356.1,776.2,345.2z
			 M799.1,400.5c-7.7-7.7-7.7-20.1,0-27.8c7.7-7.7,20.1-7.7,27.8,0c7.7,7.7,7.7,20.1,0,27.8C819.2,408.1,806.8,408.1,799.1,400.5z
			 M854.3,423.3c-10.8,0-19.6-8.8-19.6-19.7c0-10.9,8.8-19.6,19.6-19.6c10.9,0,19.7,8.8,19.7,19.6
			C874,414.5,865.2,423.3,854.3,423.3z M846.9,349.8c0,0,0.1-0.1,0.1-0.1c0.4-0.3,0.8-0.5,1.3-0.5c0.6,0,1.1,0.2,1.4,0.6
			s0.6,0.9,0.6,1.4c0,0.5-0.2,1-0.5,1.3c0,0-0.1,0.1-0.1,0.1c-0.4,0.4-0.9,0.6-1.4,0.6s-1-0.2-1.4-0.6
			C846.1,351.9,846.1,350.6,846.9,349.8z M848.3,341.2c-0.5,0-1-0.2-1.4-0.6c0,0,0,0,0,0c-0.8-0.8-0.8-2.1,0-2.9
			c0.4-0.4,0.9-0.6,1.4-0.6s1.1,0.2,1.4,0.6c0,0,0,0,0,0c0.8,0.8,0.8,2.1,0,2.9C849.4,341,848.8,341.2,848.3,341.2z M847.8,345.2
			c0,1.1-0.9,2-1.9,2c0,0-0.1,0-0.1,0c-1.1,0-2-0.9-2-2.1c0-1.1,0.9-2,2-2h0.1C847,343.2,847.8,344.1,847.8,345.2z M854.3,338.7
			c-1.1,0-2-0.9-2-2v0c0-1.1,0.9-2,2-2c1.1,0,2.1,0.9,2.1,2v0C856.4,337.8,855.5,338.7,854.3,338.7z M854.3,351.7c1.1,0,2,0.8,2,1.9
			c0,0.1,0,0.1,0,0.2c0,1.1-0.9,2-2.1,2c-1.1,0-2-0.9-2-2c0-0.1,0-0.1,0-0.2C852.4,352.6,853.3,351.7,854.3,351.7z M860.9,345.2
			c0-1.1,0.9-2,2-2h0.1c1.1,0,2,0.9,2,2c0,1.1-0.9,2.1-2,2.1c-0.1,0-0.1,0-0.1,0C861.7,347.2,860.9,346.3,860.9,345.2z M861.8,340.6
			C861.8,340.6,861.8,340.6,861.8,340.6c-0.4,0.4-0.9,0.6-1.4,0.6c-0.6,0-1.1-0.2-1.4-0.6c-0.8-0.8-0.8-2.1,0-2.9c0,0,0,0,0,0
			c0.4-0.4,0.9-0.6,1.4-0.6c0.5,0,1,0.2,1.4,0.6C862.6,338.5,862.6,339.8,861.8,340.6z M860.4,349.2c0.5,0,1,0.2,1.3,0.5
			c0,0,0.1,0.1,0.1,0.1c0.8,0.8,0.8,2.1,0,2.9c-0.4,0.4-0.9,0.6-1.4,0.6c-0.6,0-1.1-0.2-1.4-0.6c0,0-0.1-0.1-0.1-0.1
			c-0.3-0.4-0.5-0.8-0.5-1.3c0-0.6,0.2-1.1,0.6-1.4C859.3,349.4,859.9,349.2,860.4,349.2z M854.3,306.4c-10.8,0-19.6-8.8-19.6-19.6
			c0-10.9,8.8-19.7,19.6-19.7c10.9,0,19.7,8.8,19.7,19.7C874,297.6,865.2,306.4,854.3,306.4z M909.6,400.5c-7.7,7.7-20.1,7.7-27.8,0
			c-7.7-7.7-7.7-20.1,0-27.8c7.7-7.7,20.1-7.7,27.8,0C917.3,380.3,917.3,392.8,909.6,400.5z M912.8,364.9
			c-10.9,0-19.6-8.8-19.6-19.7c0-10.8,8.8-19.6,19.6-19.6c10.9,0,19.7,8.8,19.7,19.6C932.5,356.1,923.7,364.9,912.8,364.9z
			 M898.9,345.2c0,7.4,5.8,13.5,13.2,13.9c1.2-4.6,1.8-9.5,1.8-14.4c0-4.6-0.5-9.1-1.5-13.4C904.9,331.6,898.9,337.7,898.9,345.2z
			 M895.7,317.8c3.6,0,7-1.3,9.6-3.8c-4.9-8-11.6-14.8-19.6-19.8c-5.3,5.4-5.2,14.2,0.1,19.6C888.5,316.4,892,317.8,895.7,317.8z
			 M885.8,376.7c-2.6,2.6-4.1,6.1-4.1,9.9c0,3.3,1.2,6.5,3.3,9c8-4.8,14.8-11.6,19.8-19.5c-2.5-2.2-5.8-3.4-9.2-3.4
			C892,372.6,888.5,374.1,885.8,376.7z M840.4,286.8c0.1,7.6,6.3,13.8,13.9,13.8c7.7,0,13.9-6.2,14-13.8c-4.5-1.1-9.1-1.6-14-1.6
			C849.6,285.2,844.9,285.8,840.4,286.8z M854.3,389.8c-7.3,0-13.3,5.6-13.9,12.8c4.4,1,9.1,1.6,13.9,1.6c4.8,0,9.4-0.6,13.9-1.6
			C867.6,395.4,861.6,389.8,854.3,389.8z M822.8,376.7c-2.6-2.6-6.1-4.1-9.8-4.1c-3.4,0-6.6,1.2-9.2,3.4c5,8,11.7,14.7,19.8,19.5
			c2.1-2.5,3.3-5.7,3.3-9C826.9,382.8,825.5,379.3,822.8,376.7z M822.8,313.7c5.4-5.4,5.4-14.1,0.1-19.6c-8,5-14.7,11.8-19.6,19.8
			c2.6,2.5,6,3.8,9.6,3.8C816.7,317.8,820.2,316.4,822.8,313.7z M885.7,294.2c-5.3,5.4-5.2,14.2,0.1,19.6c2.6,2.6,6.1,4.1,9.9,4.1
			c3.6,0,7-1.3,9.6-3.8C900.4,305.9,893.7,299.1,885.7,294.2z M823,294.2c-8,5-14.7,11.8-19.6,19.8c2.6,2.5,6,3.8,9.6,3.8
			c3.7,0,7.2-1.4,9.8-4.1C828.2,308.3,828.3,299.6,823,294.2z M822.8,376.7c-2.6-2.6-6.1-4.1-9.8-4.1c-3.4,0-6.6,1.2-9.2,3.4
			c5,8,11.7,14.7,19.8,19.5c2.1-2.5,3.3-5.7,3.3-9C826.9,382.8,825.5,379.3,822.8,376.7z M854.3,389.8c-7.3,0-13.3,5.6-13.9,12.8
			c4.4,1,9.1,1.6,13.9,1.6c4.8,0,9.4-0.6,13.9-1.6C867.6,395.4,861.6,389.8,854.3,389.8z M854.3,285.2c-4.8,0-9.5,0.6-13.9,1.6
			c0.1,7.6,6.3,13.8,13.9,13.8c7.7,0,13.9-6.2,14-13.8C863.8,285.8,859.2,285.2,854.3,285.2z M895.7,372.6c-3.7,0-7.2,1.5-9.9,4.1
			c-2.6,2.6-4.1,6.1-4.1,9.9c0,3.3,1.2,6.5,3.3,9c8-4.8,14.8-11.6,19.8-19.5C902.3,373.8,899.1,372.6,895.7,372.6z M912.3,331.3
			c-7.5,0.3-13.4,6.4-13.4,13.9c0,7.4,5.8,13.5,13.2,13.9c1.2-4.6,1.8-9.5,1.8-14.4C913.8,340.1,913.3,335.6,912.3,331.3z
			 M912.3,331.3c-7.5,0.3-13.4,6.4-13.4,13.9c0,7.4,5.8,13.5,13.2,13.9c1.2-4.6,1.8-9.5,1.8-14.4
			C913.8,340.1,913.3,335.6,912.3,331.3z M885.7,294.2c-5.3,5.4-5.2,14.2,0.1,19.6c2.6,2.6,6.1,4.1,9.9,4.1c3.6,0,7-1.3,9.6-3.8
			C900.4,305.9,893.7,299.1,885.7,294.2z M895.7,372.6c-3.7,0-7.2,1.5-9.9,4.1c-2.6,2.6-4.1,6.1-4.1,9.9c0,3.3,1.2,6.5,3.3,9
			c8-4.8,14.8-11.6,19.8-19.5C902.3,373.8,899.1,372.6,895.7,372.6z M854.3,285.2c-4.8,0-9.5,0.6-13.9,1.6
			c0.1,7.6,6.3,13.8,13.9,13.8c7.7,0,13.9-6.2,14-13.8C863.8,285.8,859.2,285.2,854.3,285.2z M854.3,389.8
			c-7.3,0-13.3,5.6-13.9,12.8c4.4,1,9.1,1.6,13.9,1.6c4.8,0,9.4-0.6,13.9-1.6C867.6,395.4,861.6,389.8,854.3,389.8z M822.8,376.7
			c-2.6-2.6-6.1-4.1-9.8-4.1c-3.4,0-6.6,1.2-9.2,3.4c5,8,11.7,14.7,19.8,19.5c2.1-2.5,3.3-5.7,3.3-9
			C826.9,382.8,825.5,379.3,822.8,376.7z M823,294.2c-8,5-14.7,11.8-19.6,19.8c2.6,2.5,6,3.8,9.6,3.8c3.7,0,7.2-1.4,9.8-4.1
			C828.2,308.3,828.3,299.6,823,294.2z M885.7,294.2c-5.3,5.4-5.2,14.2,0.1,19.6c2.6,2.6,6.1,4.1,9.9,4.1c3.6,0,7-1.3,9.6-3.8
			C900.4,305.9,893.7,299.1,885.7,294.2z M823,294.2c-8,5-14.7,11.8-19.6,19.8c2.6,2.5,6,3.8,9.6,3.8c3.7,0,7.2-1.4,9.8-4.1
			C828.2,308.3,828.3,299.6,823,294.2z M822.8,376.7c-2.6-2.6-6.1-4.1-9.8-4.1c-3.4,0-6.6,1.2-9.2,3.4c5,8,11.7,14.7,19.8,19.5
			c2.1-2.5,3.3-5.7,3.3-9C826.9,382.8,825.5,379.3,822.8,376.7z M854.3,389.8c-7.3,0-13.3,5.6-13.9,12.8c4.4,1,9.1,1.6,13.9,1.6
			c4.8,0,9.4-0.6,13.9-1.6C867.6,395.4,861.6,389.8,854.3,389.8z M854.3,285.2c-4.8,0-9.5,0.6-13.9,1.6c0.1,7.6,6.3,13.8,13.9,13.8
			c7.7,0,13.9-6.2,14-13.8C863.8,285.8,859.2,285.2,854.3,285.2z M895.7,372.6c-3.7,0-7.2,1.5-9.9,4.1c-2.6,2.6-4.1,6.1-4.1,9.9
			c0,3.3,1.2,6.5,3.3,9c8-4.8,14.8-11.6,19.8-19.5C902.3,373.8,899.1,372.6,895.7,372.6z M912.3,331.3c-7.5,0.3-13.4,6.4-13.4,13.9
			c0,7.4,5.8,13.5,13.2,13.9c1.2-4.6,1.8-9.5,1.8-14.4C913.8,340.1,913.3,335.6,912.3,331.3z M912.3,331.3
			c-7.5,0.3-13.4,6.4-13.4,13.9c0,7.4,5.8,13.5,13.2,13.9c1.2-4.6,1.8-9.5,1.8-14.4C913.8,340.1,913.3,335.6,912.3,331.3z
			 M885.7,294.2c-5.3,5.4-5.2,14.2,0.1,19.6c2.6,2.6,6.1,4.1,9.9,4.1c3.6,0,7-1.3,9.6-3.8C900.4,305.9,893.7,299.1,885.7,294.2z
			 M895.7,372.6c-3.7,0-7.2,1.5-9.9,4.1c-2.6,2.6-4.1,6.1-4.1,9.9c0,3.3,1.2,6.5,3.3,9c8-4.8,14.8-11.6,19.8-19.5
			C902.3,373.8,899.1,372.6,895.7,372.6z M854.3,285.2c-4.8,0-9.5,0.6-13.9,1.6c0.1,7.6,6.3,13.8,13.9,13.8c7.7,0,13.9-6.2,14-13.8
			C863.8,285.8,859.2,285.2,854.3,285.2z M854.3,389.8c-7.3,0-13.3,5.6-13.9,12.8c4.4,1,9.1,1.6,13.9,1.6c4.8,0,9.4-0.6,13.9-1.6
			C867.6,395.4,861.6,389.8,854.3,389.8z M822.8,376.7c-2.6-2.6-6.1-4.1-9.8-4.1c-3.4,0-6.6,1.2-9.2,3.4c5,8,11.7,14.7,19.8,19.5
			c2.1-2.5,3.3-5.7,3.3-9C826.9,382.8,825.5,379.3,822.8,376.7z M823,294.2c-8,5-14.7,11.8-19.6,19.8c2.6,2.5,6,3.8,9.6,3.8
			c3.7,0,7.2-1.4,9.8-4.1C828.2,308.3,828.3,299.6,823,294.2z M885.7,294.2c-5.3,5.4-5.2,14.2,0.1,19.6c2.6,2.6,6.1,4.1,9.9,4.1
			c3.6,0,7-1.3,9.6-3.8C900.4,305.9,893.7,299.1,885.7,294.2z M823,294.2c-8,5-14.7,11.8-19.6,19.8c2.6,2.5,6,3.8,9.6,3.8
			c3.7,0,7.2-1.4,9.8-4.1C828.2,308.3,828.3,299.6,823,294.2z M822.8,376.7c-2.6-2.6-6.1-4.1-9.8-4.1c-3.4,0-6.6,1.2-9.2,3.4
			c5,8,11.7,14.7,19.8,19.5c2.1-2.5,3.3-5.7,3.3-9C826.9,382.8,825.5,379.3,822.8,376.7z M854.3,389.8c-7.3,0-13.3,5.6-13.9,12.8
			c4.4,1,9.1,1.6,13.9,1.6c4.8,0,9.4-0.6,13.9-1.6C867.6,395.4,861.6,389.8,854.3,389.8z M854.3,285.2c-4.8,0-9.5,0.6-13.9,1.6
			c0.1,7.6,6.3,13.8,13.9,13.8c7.7,0,13.9-6.2,14-13.8C863.8,285.8,859.2,285.2,854.3,285.2z M895.7,372.6c-3.7,0-7.2,1.5-9.9,4.1
			c-2.6,2.6-4.1,6.1-4.1,9.9c0,3.3,1.2,6.5,3.3,9c8-4.8,14.8-11.6,19.8-19.5C902.3,373.8,899.1,372.6,895.7,372.6z M912.3,331.3
			c-7.5,0.3-13.4,6.4-13.4,13.9c0,7.4,5.8,13.5,13.2,13.9c1.2-4.6,1.8-9.5,1.8-14.4C913.8,340.1,913.3,335.6,912.3,331.3z
			 M912.3,331.3c-7.5,0.3-13.4,6.4-13.4,13.9c0,7.4,5.8,13.5,13.2,13.9c1.2-4.6,1.8-9.5,1.8-14.4
			C913.8,340.1,913.3,335.6,912.3,331.3z M885.7,294.2c-5.3,5.4-5.2,14.2,0.1,19.6c2.6,2.6,6.1,4.1,9.9,4.1c3.6,0,7-1.3,9.6-3.8
			C900.4,305.9,893.7,299.1,885.7,294.2z M895.7,372.6c-3.7,0-7.2,1.5-9.9,4.1c-2.6,2.6-4.1,6.1-4.1,9.9c0,3.3,1.2,6.5,3.3,9
			c8-4.8,14.8-11.6,19.8-19.5C902.3,373.8,899.1,372.6,895.7,372.6z M854.3,285.2c-4.8,0-9.5,0.6-13.9,1.6
			c0.1,7.6,6.3,13.8,13.9,13.8c7.7,0,13.9-6.2,14-13.8C863.8,285.8,859.2,285.2,854.3,285.2z M854.3,389.8
			c-7.3,0-13.3,5.6-13.9,12.8c4.4,1,9.1,1.6,13.9,1.6c4.8,0,9.4-0.6,13.9-1.6C867.6,395.4,861.6,389.8,854.3,389.8z M822.8,376.7
			c-2.6-2.6-6.1-4.1-9.8-4.1c-3.4,0-6.6,1.2-9.2,3.4c5,8,11.7,14.7,19.8,19.5c2.1-2.5,3.3-5.7,3.3-9
			C826.9,382.8,825.5,379.3,822.8,376.7z M823,294.2c-8,5-14.7,11.8-19.6,19.8c2.6,2.5,6,3.8,9.6,3.8c3.7,0,7.2-1.4,9.8-4.1
			C828.2,308.3,828.3,299.6,823,294.2z M885.7,294.2c-5.3,5.4-5.2,14.2,0.1,19.6c2.6,2.6,6.1,4.1,9.9,4.1c3.6,0,7-1.3,9.6-3.8
			C900.4,305.9,893.7,299.1,885.7,294.2z M823,294.2c-8,5-14.7,11.8-19.6,19.8c2.6,2.5,6,3.8,9.6,3.8c3.7,0,7.2-1.4,9.8-4.1
			C828.2,308.3,828.3,299.6,823,294.2z M822.8,376.7c-2.6-2.6-6.1-4.1-9.8-4.1c-3.4,0-6.6,1.2-9.2,3.4c5,8,11.7,14.7,19.8,19.5
			c2.1-2.5,3.3-5.7,3.3-9C826.9,382.8,825.5,379.3,822.8,376.7z M854.3,389.8c-7.3,0-13.3,5.6-13.9,12.8c4.4,1,9.1,1.6,13.9,1.6
			c4.8,0,9.4-0.6,13.9-1.6C867.6,395.4,861.6,389.8,854.3,389.8z M854.3,285.2c-4.8,0-9.5,0.6-13.9,1.6c0.1,7.6,6.3,13.8,13.9,13.8
			c7.7,0,13.9-6.2,14-13.8C863.8,285.8,859.2,285.2,854.3,285.2z M895.7,372.6c-3.7,0-7.2,1.5-9.9,4.1c-2.6,2.6-4.1,6.1-4.1,9.9
			c0,3.3,1.2,6.5,3.3,9c8-4.8,14.8-11.6,19.8-19.5C902.3,373.8,899.1,372.6,895.7,372.6z M912.3,331.3c-7.5,0.3-13.4,6.4-13.4,13.9
			c0,7.4,5.8,13.5,13.2,13.9c1.2-4.6,1.8-9.5,1.8-14.4C913.8,340.1,913.3,335.6,912.3,331.3z M912.3,331.3
			c-7.5,0.3-13.4,6.4-13.4,13.9c0,7.4,5.8,13.5,13.2,13.9c1.2-4.6,1.8-9.5,1.8-14.4C913.8,340.1,913.3,335.6,912.3,331.3z
			 M885.7,294.2c-5.3,5.4-5.2,14.2,0.1,19.6c2.6,2.6,6.1,4.1,9.9,4.1c3.6,0,7-1.3,9.6-3.8C900.4,305.9,893.7,299.1,885.7,294.2z
			 M895.7,372.6c-3.7,0-7.2,1.5-9.9,4.1c-2.6,2.6-4.1,6.1-4.1,9.9c0,3.3,1.2,6.5,3.3,9c8-4.8,14.8-11.6,19.8-19.5
			C902.3,373.8,899.1,372.6,895.7,372.6z M854.3,285.2c-4.8,0-9.5,0.6-13.9,1.6c0.1,7.6,6.3,13.8,13.9,13.8c7.7,0,13.9-6.2,14-13.8
			C863.8,285.8,859.2,285.2,854.3,285.2z M854.3,389.8c-7.3,0-13.3,5.6-13.9,12.8c4.4,1,9.1,1.6,13.9,1.6c4.8,0,9.4-0.6,13.9-1.6
			C867.6,395.4,861.6,389.8,854.3,389.8z M822.8,376.7c-2.6-2.6-6.1-4.1-9.8-4.1c-3.4,0-6.6,1.2-9.2,3.4c5,8,11.7,14.7,19.8,19.5
			c2.1-2.5,3.3-5.7,3.3-9C826.9,382.8,825.5,379.3,822.8,376.7z M823,294.2c-8,5-14.7,11.8-19.6,19.8c2.6,2.5,6,3.8,9.6,3.8
			c3.7,0,7.2-1.4,9.8-4.1C828.2,308.3,828.3,299.6,823,294.2z M885.7,294.2c-5.3,5.4-5.2,14.2,0.1,19.6c2.6,2.6,6.1,4.1,9.9,4.1
			c3.6,0,7-1.3,9.6-3.8C900.4,305.9,893.7,299.1,885.7,294.2z M823,294.2c-8,5-14.7,11.8-19.6,19.8c2.6,2.5,6,3.8,9.6,3.8
			c3.7,0,7.2-1.4,9.8-4.1C828.2,308.3,828.3,299.6,823,294.2z M854.3,389.8c-7.3,0-13.3,5.6-13.9,12.8c4.4,1,9.1,1.6,13.9,1.6
			c4.8,0,9.4-0.6,13.9-1.6C867.6,395.4,861.6,389.8,854.3,389.8z M854.3,285.2c-4.8,0-9.5,0.6-13.9,1.6c0.1,7.6,6.3,13.8,13.9,13.8
			c7.7,0,13.9-6.2,14-13.8C863.8,285.8,859.2,285.2,854.3,285.2z M895.7,372.6c-3.7,0-7.2,1.5-9.9,4.1c-2.6,2.6-4.1,6.1-4.1,9.9
			c0,3.3,1.2,6.5,3.3,9c8-4.8,14.8-11.6,19.8-19.5C902.3,373.8,899.1,372.6,895.7,372.6z M912.3,331.3c-7.5,0.3-13.4,6.4-13.4,13.9
			c0,7.4,5.8,13.5,13.2,13.9c1.2-4.6,1.8-9.5,1.8-14.4C913.8,340.1,913.3,335.6,912.3,331.3z M912.3,331.3
			c-7.5,0.3-13.4,6.4-13.4,13.9c0,7.4,5.8,13.5,13.2,13.9c1.2-4.6,1.8-9.5,1.8-14.4C913.8,340.1,913.3,335.6,912.3,331.3z
			 M885.7,294.2c-5.3,5.4-5.2,14.2,0.1,19.6c2.6,2.6,6.1,4.1,9.9,4.1c3.6,0,7-1.3,9.6-3.8C900.4,305.9,893.7,299.1,885.7,294.2z
			 M895.7,372.6c-3.7,0-7.2,1.5-9.9,4.1c-2.6,2.6-4.1,6.1-4.1,9.9c0,3.3,1.2,6.5,3.3,9c8-4.8,14.8-11.6,19.8-19.5
			C902.3,373.8,899.1,372.6,895.7,372.6z M854.3,285.2c-4.8,0-9.5,0.6-13.9,1.6c0.1,7.6,6.3,13.8,13.9,13.8c7.7,0,13.9-6.2,14-13.8
			C863.8,285.8,859.2,285.2,854.3,285.2z M854.3,389.8c-7.3,0-13.3,5.6-13.9,12.8c4.4,1,9.1,1.6,13.9,1.6c4.8,0,9.4-0.6,13.9-1.6
			C867.6,395.4,861.6,389.8,854.3,389.8z M823,294.2c-8,5-14.7,11.8-19.6,19.8c2.6,2.5,6,3.8,9.6,3.8c3.7,0,7.2-1.4,9.8-4.1
			C828.2,308.3,828.3,299.6,823,294.2z M885.7,294.2c-5.3,5.4-5.2,14.2,0.1,19.6c2.6,2.6,6.1,4.1,9.9,4.1c3.6,0,7-1.3,9.6-3.8
			C900.4,305.9,893.7,299.1,885.7,294.2z M823,294.2c-8,5-14.7,11.8-19.6,19.8c2.6,2.5,6,3.8,9.6,3.8c3.7,0,7.2-1.4,9.8-4.1
			C828.2,308.3,828.3,299.6,823,294.2z M854.3,285.2c-4.8,0-9.5,0.6-13.9,1.6c0.1,7.6,6.3,13.8,13.9,13.8c7.7,0,13.9-6.2,14-13.8
			C863.8,285.8,859.2,285.2,854.3,285.2z M912.3,331.3c-7.5,0.3-13.4,6.4-13.4,13.9c0,7.4,5.8,13.5,13.2,13.9
			c1.2-4.6,1.8-9.5,1.8-14.4C913.8,340.1,913.3,335.6,912.3,331.3z M912.3,331.3c-7.5,0.3-13.4,6.4-13.4,13.9
			c0,7.4,5.8,13.5,13.2,13.9c1.2-4.6,1.8-9.5,1.8-14.4C913.8,340.1,913.3,335.6,912.3,331.3z M885.7,294.2
			c-5.3,5.4-5.2,14.2,0.1,19.6c2.6,2.6,6.1,4.1,9.9,4.1c3.6,0,7-1.3,9.6-3.8C900.4,305.9,893.7,299.1,885.7,294.2z M854.3,285.2
			c-4.8,0-9.5,0.6-13.9,1.6c0.1,7.6,6.3,13.8,13.9,13.8c7.7,0,13.9-6.2,14-13.8C863.8,285.8,859.2,285.2,854.3,285.2z M823,294.2
			c-8,5-14.7,11.8-19.6,19.8c2.6,2.5,6,3.8,9.6,3.8c3.7,0,7.2-1.4,9.8-4.1C828.2,308.3,828.3,299.6,823,294.2z M823,294.2
			c-8,5-14.7,11.8-19.6,19.8c2.6,2.5,6,3.8,9.6,3.8c3.7,0,7.2-1.4,9.8-4.1C828.2,308.3,828.3,299.6,823,294.2z M854.3,285.2
			c-4.8,0-9.5,0.6-13.9,1.6c0.1,7.6,6.3,13.8,13.9,13.8c7.7,0,13.9-6.2,14-13.8C863.8,285.8,859.2,285.2,854.3,285.2z M854.3,285.2
			c-4.8,0-9.5,0.6-13.9,1.6c0.1,7.6,6.3,13.8,13.9,13.8c7.7,0,13.9-6.2,14-13.8C863.8,285.8,859.2,285.2,854.3,285.2z M823,294.2
			c-8,5-14.7,11.8-19.6,19.8c2.6,2.5,6,3.8,9.6,3.8c3.7,0,7.2-1.4,9.8-4.1C828.2,308.3,828.3,299.6,823,294.2z"/>
	</g>
	<g>
		<g>
			<g>
				<path fill="#FFFFFF" d="M868.3,286.8c-0.1,7.6-6.3,13.8-14,13.8c-7.6,0-13.9-6.2-13.9-13.8c4.5-1.1,9.1-1.6,13.9-1.6
					C859.2,285.2,863.8,285.8,868.3,286.8z"/>
			</g>
			<g>
				<path fill="#FFFFFF" d="M868.3,286.8c-0.1,7.6-6.3,13.8-14,13.8c-7.6,0-13.9-6.2-13.9-13.8c4.5-1.1,9.1-1.6,13.9-1.6
					C859.2,285.2,863.8,285.8,868.3,286.8z"/>
			</g>
			<g>
				<path fill="#FFFFFF" d="M868.2,402.5c-4.5,1.1-9.1,1.6-13.9,1.6c-4.8,0-9.4-0.6-13.9-1.6c0.6-7.1,6.6-12.8,13.9-12.8
					C861.6,389.8,867.6,395.4,868.2,402.5z"/>
			</g>
			<g>
				<path fill="#FFFFFF" d="M868.2,402.5c-4.5,1.1-9.1,1.6-13.9,1.6c-4.8,0-9.4-0.6-13.9-1.6c0.6-7.1,6.6-12.8,13.9-12.8
					C861.6,389.8,867.6,395.4,868.2,402.5z"/>
			</g>
		</g>
		<g>
			<g>
				<path fill="#FFFFFF" d="M905.3,314c-2.6,2.5-6,3.8-9.6,3.8c-3.7,0-7.2-1.4-9.9-4.1c-5.4-5.4-5.4-14.1-0.1-19.6
					C893.7,299.1,900.4,305.9,905.3,314z"/>
			</g>
			<g>
				<path fill="#FFFFFF" d="M905.3,314c-2.6,2.5-6,3.8-9.6,3.8c-3.7,0-7.2-1.4-9.9-4.1c-5.4-5.4-5.4-14.1-0.1-19.6
					C893.7,299.1,900.4,305.9,905.3,314z"/>
			</g>
			<g>
				<path fill="#FFFFFF" d="M826.9,386.6c0,3.3-1.2,6.5-3.3,9c-8-4.8-14.8-11.6-19.8-19.5c2.5-2.2,5.8-3.4,9.2-3.4
					c3.7,0,7.2,1.5,9.8,4.1C825.5,379.3,826.9,382.8,826.9,386.6z"/>
			</g>
			<g>
				<path fill="#FFFFFF" d="M826.9,386.6c0,3.3-1.2,6.5-3.3,9c-8-4.8-14.8-11.6-19.8-19.5c2.5-2.2,5.8-3.4,9.2-3.4
					c3.7,0,7.2,1.5,9.8,4.1C825.5,379.3,826.9,382.8,826.9,386.6z"/>
			</g>
		</g>
		<g>
			<g>
				<path fill="#FFFFFF" d="M913.8,344.7c0,5-0.6,9.8-1.8,14.4c-7.3-0.4-13.2-6.5-13.2-13.9c0-7.5,6-13.6,13.4-13.9
					C913.3,335.6,913.8,340.1,913.8,344.7z"/>
			</g>
			<g>
				<path fill="#FFFFFF" d="M913.8,344.7c0,5-0.6,9.8-1.8,14.4c-7.3-0.4-13.2-6.5-13.2-13.9c0-7.5,6-13.6,13.4-13.9
					C913.3,335.6,913.8,340.1,913.8,344.7z"/>
			</g>
			<g>
				<path fill="#FFFFFF" d="M809.8,345.2c0,7.4-5.8,13.5-13.2,13.9c-1.2-4.6-1.8-9.5-1.8-14.4c0-4.6,0.5-9.1,1.5-13.4
					C803.8,331.6,809.8,337.7,809.8,345.2z"/>
			</g>
			<g>
				<path fill="#FFFFFF" d="M809.8,345.2c0,7.4-5.8,13.5-13.2,13.9c-1.2-4.6-1.8-9.5-1.8-14.4c0-4.6,0.5-9.1,1.5-13.4
					C803.8,331.6,809.8,337.7,809.8,345.2z"/>
			</g>
		</g>
		<g>
			<g>
				<path fill="#FFFFFF" d="M904.9,376.1c-5,8-11.8,14.7-19.8,19.5c-2.1-2.5-3.3-5.7-3.3-9c0-3.7,1.5-7.2,4.1-9.9
					c2.6-2.6,6.1-4.1,9.9-4.1C899.1,372.6,902.3,373.8,904.9,376.1z"/>
			</g>
			<g>
				<path fill="#FFFFFF" d="M904.9,376.1c-5,8-11.8,14.7-19.8,19.5c-2.1-2.5-3.3-5.7-3.3-9c0-3.7,1.5-7.2,4.1-9.9
					c2.6-2.6,6.1-4.1,9.9-4.1C899.1,372.6,902.3,373.8,904.9,376.1z"/>
			</g>
			<g>
				<path fill="#FFFFFF" d="M822.8,313.7c-2.6,2.6-6.1,4.1-9.8,4.1c-3.6,0-7-1.3-9.6-3.8c4.9-8,11.6-14.8,19.6-19.8
					C828.3,299.6,828.2,308.3,822.8,313.7z"/>
			</g>
			<g>
				<path fill="#FFFFFF" d="M822.8,313.7c-2.6,2.6-6.1,4.1-9.8,4.1c-3.6,0-7-1.3-9.6-3.8c4.9-8,11.6-14.8,19.6-19.8
					C828.3,299.6,828.2,308.3,822.8,313.7z"/>
			</g>
		</g>
	</g>
	<g>
		<path fill="#101010" d="M809.8,345.2c0,7.4-5.8,13.5-13.2,13.9c-1.2-4.6-1.8-9.5-1.8-14.4c0-4.6,0.5-9.1,1.5-13.4
			C803.8,331.6,809.8,337.7,809.8,345.2z"/>
	</g>
	<g>
		<path fill="#101010" d="M826.9,386.6c0,3.3-1.2,6.5-3.3,9c-8-4.8-14.8-11.6-19.8-19.5c2.5-2.2,5.8-3.4,9.2-3.4
			c3.7,0,7.2,1.5,9.8,4.1C825.5,379.3,826.9,382.8,826.9,386.6z"/>
	</g>
	<g>
		<path fill="#101010" d="M822.8,313.7c-2.6,2.6-6.1,4.1-9.8,4.1c-3.6,0-7-1.3-9.6-3.8c4.9-8,11.6-14.8,19.6-19.8
			C828.3,299.6,828.2,308.3,822.8,313.7z"/>
	</g>
	<g>
		<path fill="#101010" d="M868.2,402.5c-4.5,1.1-9.1,1.6-13.9,1.6c-4.8,0-9.4-0.6-13.9-1.6c0.6-7.1,6.6-12.8,13.9-12.8
			C861.6,389.8,867.6,395.4,868.2,402.5z"/>
	</g>
	<g>
		<path fill="#101010" d="M868.3,286.8c-0.1,7.6-6.3,13.8-14,13.8c-7.6,0-13.9-6.2-13.9-13.8c4.5-1.1,9.1-1.6,13.9-1.6
			C859.2,285.2,863.8,285.8,868.3,286.8z"/>
	</g>
	<g>
		<path fill="#101010" d="M904.9,376.1c-5,8-11.8,14.7-19.8,19.5c-2.1-2.5-3.3-5.7-3.3-9c0-3.7,1.5-7.2,4.1-9.9
			c2.6-2.6,6.1-4.1,9.9-4.1C899.1,372.6,902.3,373.8,904.9,376.1z"/>
	</g>
	<g>
		<path fill="#101010" d="M905.3,314c-2.6,2.5-6,3.8-9.6,3.8c-3.7,0-7.2-1.4-9.9-4.1c-5.4-5.4-5.4-14.1-0.1-19.6
			C893.7,299.1,900.4,305.9,905.3,314z"/>
	</g>
	<g>
		<path fill="#101010" d="M913.8,344.7c0,5-0.6,9.8-1.8,14.4c-7.3-0.4-13.2-6.5-13.2-13.9c0-7.5,6-13.6,13.4-13.9
			C913.3,335.6,913.8,340.1,913.8,344.7z"/>
	</g>
	<g>
		<rect x="747.7" y="427.2" fill="#101010" width="107.7" height="6"/>
	</g>
</g>
<g>
	<g>
		<path fill="#101010" d="M217.1,512.3c-20.8,0-37.6,16.8-37.6,37.6c0,20.8,16.8,37.6,37.6,37.6c20.7,0,37.6-16.8,37.6-37.6
			C254.7,529.1,237.8,512.3,217.1,512.3z M217.1,555.1c-2.9,0-5.2-2.3-5.2-5.2c0-2.9,2.3-5.2,5.2-5.2c2.9,0,5.2,2.3,5.2,5.2
			C222.3,552.7,220,555.1,217.1,555.1z"/>
	</g>
	<g>
		<path fill="#101010" d="M298,512.3c-20.8,0-37.6,16.8-37.6,37.6c0,20.8,16.8,37.6,37.6,37.6c20.7,0,37.5-16.8,37.5-37.6
			C335.5,529.1,318.7,512.3,298,512.3z M298,555.1c-2.9,0-5.2-2.3-5.2-5.2c0-2.9,2.3-5.2,5.2-5.2c2.9,0,5.2,2.3,5.2,5.2
			C303.2,552.7,300.8,555.1,298,555.1z"/>
	</g>
	<g>
		<path fill="#101010" d="M323.2,621.2v47c0,3.5-2.9,6.4-6.4,6.4H197.7c-3.5,0-6.4-2.9-6.4-6.4v-47c0-3.5,2.9-6.4,6.4-6.4h119.2
			C320.4,614.8,323.2,617.7,323.2,621.2z"/>
		<path fill="#101010" d="M179.5,601.7v84.9h156v-84.9H179.5z M327,668.1c0,5.6-4.6,10.2-10.2,10.2H197.7c-5.6,0-10.2-4.6-10.2-10.2
			v-47c0-5.6,4.6-10.2,10.2-10.2h119.2c5.6,0,10.2,4.6,10.2,10.2V668.1z"/>
	</g>
	<g>
		<polygon fill="#101010" points="160.4,616.5 148.7,606.9 148.7,622.2 148.7,637.4 160.4,627.8 169.6,627.8 169.6,616.5 		"/>
	</g>
	<g>
		<rect x="341.4" y="623.3" fill="#101010" width="8" height="29.3"/>
	</g>
	<g>
		<rect x="353.7" y="628.6" fill="#101010" width="5.2" height="18.6"/>
	</g>
	<g>
		<polygon fill="#101010" points="409.4,637.9 409.4,609.8 375.6,624.5 363.4,624.5 363.4,637.9 363.4,637.9 363.4,651.3 
			375.6,651.3 409.4,666 409.4,637.9 		"/>
	</g>
	<g>
		<rect x="243.9" y="690.8" fill="#101010" width="33" height="6.4"/>
	</g>
	<g>
		<path fill="#101010" d="M297.1,738.5v10.9h-73.4v-10.9c18.4-1.5,20.2-20.8,20.2-20.8v-0.9h33v0.9
			C276.8,717.7,278.7,737,297.1,738.5z"/>
	</g>
	<g>
		<rect x="239.7" y="701" fill="#101010" width="41.3" height="12"/>
	</g>
</g>
<g>
	<g>
		<path fill="#101010" d="M311.6,281.8c-16.8,0-30.4,13.6-30.4,30.4c0,16.8,13.6,30.4,30.4,30.4c16.8,0,30.4-13.6,30.4-30.4
			C341.9,295.4,328.3,281.8,311.6,281.8z M311.6,318.9c-3.7,0-6.7-3-6.7-6.7c0-3.7,3-6.7,6.7-6.7c3.7,0,6.7,3,6.7,6.7
			C318.3,315.9,315.3,318.9,311.6,318.9z M311.6,281.8c-16.8,0-30.4,13.6-30.4,30.4c0,16.8,13.6,30.4,30.4,30.4
			c16.8,0,30.4-13.6,30.4-30.4C341.9,295.4,328.3,281.8,311.6,281.8z M311.6,318.9c-3.7,0-6.7-3-6.7-6.7c0-3.7,3-6.7,6.7-6.7
			c3.7,0,6.7,3,6.7,6.7C318.3,315.9,315.3,318.9,311.6,318.9z M348.8,255.6H210.6c-12.6,0-22.8,10.2-22.8,22.8v95.2
			c0,12.6,10.2,22.8,22.8,22.8h138.2c12.6,0,22.8-10.2,22.8-22.8v-95.2C371.6,265.9,361.4,255.6,348.8,255.6z M223.4,379.2
			c-7.4,0-13.5-6-13.5-13.5c0-7.4,6-13.5,13.5-13.5c7.4,0,13.5,6,13.5,13.5C236.8,373.2,230.8,379.2,223.4,379.2z M356.1,338.8
			c0,7.9-6.4,14.2-14.2,14.2h-60.6c-7.9,0-14.2-6.4-14.2-14.2v-53.3c0-7.8,6.4-14.2,14.2-14.2h60.6c7.9,0,14.2,6.4,14.2,14.2V338.8z
			 M311.6,281.8c-16.8,0-30.4,13.6-30.4,30.4c0,16.8,13.6,30.4,30.4,30.4c16.8,0,30.4-13.6,30.4-30.4
			C341.9,295.4,328.3,281.8,311.6,281.8z M311.6,318.9c-3.7,0-6.7-3-6.7-6.7c0-3.7,3-6.7,6.7-6.7c3.7,0,6.7,3,6.7,6.7
			C318.3,315.9,315.3,318.9,311.6,318.9z"/>
	</g>
	<g>
		<path fill="#FFFFFF" d="M311.6,281.8c-16.8,0-30.4,13.6-30.4,30.4c0,16.8,13.6,30.4,30.4,30.4c16.8,0,30.4-13.6,30.4-30.4
			C341.9,295.4,328.3,281.8,311.6,281.8z M311.6,318.9c-3.7,0-6.7-3-6.7-6.7c0-3.7,3-6.7,6.7-6.7c3.7,0,6.7,3,6.7,6.7
			C318.3,315.9,315.3,318.9,311.6,318.9z"/>
	</g>
	<g>
		<path fill="#101010" d="M311.6,281.8c-16.8,0-30.4,13.6-30.4,30.4c0,16.8,13.6,30.4,30.4,30.4c16.8,0,30.4-13.6,30.4-30.4
			C341.9,295.4,328.3,281.8,311.6,281.8z M311.6,318.9c-3.7,0-6.7-3-6.7-6.7c0-3.7,3-6.7,6.7-6.7c3.7,0,6.7,3,6.7,6.7
			C318.3,315.9,315.3,318.9,311.6,318.9z"/>
	</g>
	<g>
		<rect x="258.8" y="402.8" fill="#101010" width="43.2" height="12.4"/>
	</g>
	<g>
		<path fill="#101010" d="M302.1,424.3L302.1,424.3l-43.2,0v0c0,6.9-5.6,12.4-12.4,12.4h-2.3v15.9h72.7v-15.9h-2.3
			C307.6,436.7,302.1,431.1,302.1,424.3z"/>
	</g>
	<g>
		<polygon fill="#101010" points="193.2,413.5 193.2,403.9 174.1,403.9 165.6,394.7 165.6,414.3 165.6,423.4 165.6,443 174.1,433.8 
			193.2,433.8 193.2,424.3 249.2,424.3 249.2,421.6 249.2,416.2 249.2,413.5 		"/>
	</g>
</g>
<g>
	<g>
		<rect x="485.4" y="560.4" fill="#101010" width="96.3" height="154.7"/>
	</g>
	<g>
		<g>
			<rect x="481.5" y="548.2" fill="#101010" width="104.1" height="6.4"/>
		</g>
		<g>
			<rect x="513.4" y="531.6" fill="#101010" width="40.3" height="10.6"/>
		</g>
	</g>
	<g>
		<g>
			<rect x="481.5" y="720.8" fill="#101010" width="104.1" height="6.4"/>
		</g>
		<g>
			<rect x="513.4" y="733.3" fill="#101010" width="40.3" height="10.6"/>
		</g>
	</g>
	<g>
		<path fill="#101010" d="M592.5,560.4v154.7h18.1v-24.2c0-12.1,6.3-23.4,16.7-29.4c8.2-4.7,16.3-13.3,16.3-28.8v-72.2H592.5z
			 M614.4,579.6h-11.7v-11.7h11.7V579.6z M633.2,579.6h-11.7v-11.7h11.7V579.6z"/>
	</g>
</g>
<g>
	<g>
		<g>
			<path fill="#101010" d="M1168.1,643.4l-44.9,26.2c-4,2.3-8.9-0.6-8.9-5.1v-52.3c0-4.6,5-7.4,8.9-5.1l44.9,26.2
				C1172,635.5,1172,641.1,1168.1,643.4z"/>
			<path fill="#101010" d="M1024.3,543.5v194.8h227V543.5H1024.3z M1144.7,552.8l19.6,0v19.7l-19.6-0.1V552.8z M1111.1,552.8
				l19.6,0.1v19.7l-19.6-0.1V552.8z M1077.4,552.7l19.6,0.1v19.7l-19.6,0V552.7z M1063.3,726.9l-19.6-0.1v-19.7l19.6,0V726.9z
				 M1063.3,572.3l-19.6-0.1v-19.7l19.6,0V572.3z M1097,727l-19.6,0v-19.7l19.6,0.1V727z M1130.7,727.1l-19.6-0.1v-19.7l19.6,0.1
				V727.1z M1164.4,727.2l-19.6-0.1v-19.7l19.6,0V727.2z M1137.6,691.7c-29.5,0-53.4-23.9-53.4-53.4c0-29.5,23.9-53.5,53.4-53.5
				c29.5,0,53.4,23.9,53.4,53.5C1191.1,667.8,1167.1,691.7,1137.6,691.7z M1198.1,727.3l-19.6,0v-19.7l19.6,0.1V727.3z
				 M1198.1,572.7l-19.6,0v-19.7l19.6,0.1V572.7z M1231.8,727.3l-19.6,0v-19.7l19.6,0.1V727.3z M1231.8,572.7l-19.6,0v-19.7
				l19.6,0.1V572.7z"/>
		</g>
	</g>
	<g>
		<path fill="#FFFFFF" d="M1168.1,643.4l-44.9,26.2c-4,2.3-8.9-0.6-8.9-5.1v-52.3c0-4.6,5-7.4,8.9-5.1l44.9,26.2
			C1172,635.5,1172,641.1,1168.1,643.4z"/>
	</g>
	<g>
		<path fill="#101010" d="M1168.1,643.4l-44.9,26.2c-4,2.3-8.9-0.6-8.9-5.1v-52.3c0-4.6,5-7.4,8.9-5.1l44.9,26.2
			C1172,635.5,1172,641.1,1168.1,643.4z"/>
	</g>
</g>
<g>
	<g>
		<g>
			<path fill="#101010" d="M884.9,585.4H751.8c-8.4,0-15.2,6.8-15.2,15.2v79c0,8.4,6.8,15.2,15.2,15.2h133.1
				c8.4,0,15.2-6.8,15.2-15.2v-79C900.1,592.2,893.3,585.4,884.9,585.4z M805.2,624c0,3.3-2.7,5.9-5.9,5.9h-41.7
				c-3.3,0-5.9-2.7-5.9-5.9v-19.8c0-3.3,2.7-5.9,5.9-5.9h41.7c3.3,0,5.9,2.7,5.9,5.9V624z"/>
		</g>
		<g>
			<rect x="909" y="619.4" fill="#101010" width="18" height="42.9"/>
		</g>
		<g>
			<rect x="933.2" y="626.2" fill="#101010" width="11.8" height="29.3"/>
		</g>
		<g>
			<polygon fill="#101010" points="959.4,606.8 945,624 945,640.8 945,640.8 945,657.7 959.4,674.9 972.1,674.9 972.1,640.8 
				972.1,640.8 972.1,606.8 			"/>
		</g>
		<g>
			<g>
				<rect x="785.5" y="572.7" fill="#101010" width="9" height="6"/>
			</g>
			<g>
				<rect x="842.3" y="572.7" fill="#101010" width="9" height="6"/>
			</g>
			<g>
				<path fill="#101010" d="M803.6,550.7c-6.8,2.9-14,8.1-17.2,17.5h9.8c0,0,7.3-8.8,22.6-8.8c15.3,0,22.6,8.8,22.6,8.8h9.8
					c-3.2-9.5-10.4-14.7-17.2-17.5C824.2,546.7,813.2,546.7,803.6,550.7z"/>
			</g>
		</g>
		<g>
			<rect x="906.3" y="596.8" fill="#101010" width="9.5" height="6.8"/>
		</g>
		<g>
			<path fill="#101010" d="M943.2,605.9h-18.1c-2.9,0-5.2-2.3-5.2-5.2v-3.2c0-2.9,2.3-5.2,5.2-5.2h18.1c2.9,0,5.2,2.3,5.2,5.2v3.2
				C948.4,603.6,946.1,605.9,943.2,605.9z"/>
		</g>
		<g>
			<rect x="753.1" y="701.3" fill="#101010" width="19.5" height="8.1"/>
		</g>
		<g>
			<rect x="863" y="701.3" fill="#101010" width="19.5" height="8.1"/>
		</g>
	</g>
</g>
</svg>
